<?xml version="1.0" encoding="UTF-8"?>
<svg xmlns="http://www.w3.org/2000/svg" viewBox="0 0 2257.5081483088 1422.0112668105">
  <defs>
    <style>
      .cls-1 {
        fill: #e5e5e5;
      }
    </style>
  </defs>
  <g id="Layer_11" data-name="Layer 11">
    <path class="cls-1" d="m2246.7344476082,1040.54099244c-401.1408332597-69.0315271066-802.2815350045-138.0629890583-1203.4223682642-207.0945161649l7.5849246504-33.2525082191c402.2036709332,68.7290130123,804.4074076238,137.4580911796,1206.6111443145,206.1871041919-3.5912774052,11.3866617823-7.1824232955,22.7732584098-10.7737007007,34.1599201922Z"/>
  </g>
  <g id="Layer_10" data-name="Layer 10">
    <path class="cls-1" d="m646.3271670701,595.7682110953c63.2056860902,9.2516073524,126.4113721804,18.5033048561,189.6171465391,27.7549122085,59.6144790023-6.0491140148,119.2289580045-12.098318181,178.8434370068-18.1474321958,19.0335299688-70.8106810113,38.0670599376-141.6213620225,57.1005899064-212.4319979581l58.1779961671-145.1796829447,108.8143250467-157.9896337572h40.940025608l-121.7426705632,172.9345951532c-20.1109362295,48.3932051104-40.221872459,96.7864327586-60.3328086884,145.1796604069-19.751859655,68.6756704276-39.5035427728,137.3513408553-59.2554024278,206.0270112829,14.5996227686,31.069328512,29.1990690001,62.1386570239,43.7986917687,93.2079855359-43.8678943337,196.9387131957-87.7356121302,393.8775165428-131.6035064639,590.8162297385-11.5695390298-1.969357382-23.1390780596-3.9388049154-34.7086170894-5.9081622974,45.3140867124-192.9999984317,90.6279968877-385.999906712,135.9420836001-578.9999051438-12.0177668679-27.3454445395-24.0355337358-54.6907989276-36.0533006036-82.0361983914-58.8961493161,7.8283420895-117.7924751694,15.6566391032-176.6887127541,23.4849811927l-195.0040013053-30.9574506218c.7182414176-9.2516073524,1.4364828352-18.5033048561,2.1547242527-27.7549122085Z"/>
    <polygon class="cls-1" points="1008.3235033167 67.3569316904 910.2828269406 412.1586261299 818.706370985 617.1181472829 612.9286876023 965.1223342405 623.7023883029 1283.2365910299 657.100860475 1277.8991034999 649.5592699845 980.0672993245 839.1764023162 654.480559993 941.5265589725 426.036093708 1041.7219754887 51.3444691003 1008.3235033167 67.3569316904"/>
    <path class="cls-1" d="m1464.9114710613,62.0194441603l-165.4576668547,697.2072236533c-12.1304625882,220.9281996656-24.2607968444,441.8563993312-36.3912594326,662.7845989968,13.666854384-5.33748753,27.3337087681-10.67497506,41.0005631521-16.0124625901,9.9612652507-210.9208014761,19.9224021694-421.8415377973,29.8836674201-632.7623392734L1499.604255267,34.2645090042l-34.6927842056,27.7549351561Z"/>
    <path class="cls-1" d="m1508.2232158275,597.9031921748l68.9516844843,101.4122630705,8.6189605605,97.1422730464-38.7853225224,550.8287130985,23.7021415415-1.067497506,48.9852237094-557.2213838628-10.199901187-108.8970598843-76.4932749747-96.0747755404c-8.2597933655,4.6258333852-16.519718246,9.2516341929-24.7795116115,13.8774675781Z"/>
    <path class="cls-1" d="m1326.1476739863,669.4255250771c224.4521417688-112.7988922754,448.9041520227-225.5978171282,673.3562937915-338.3967094035-1.436537265,12.0982996385-2.8729430152,24.1966155657-4.3094802803,36.2949152042-225.888547519,115.2897306485-451.7772265528,230.579461297-677.6657740718,345.8691919456,2.8729430152-14.5891543004,5.7460175453-29.1782434458,8.6189605605-43.7673977462Z"/>
    <polygon class="cls-1" points="1794.8036544652 42.8044890523 1649.742158291 503.5472039728 1655.0444332403 535.069326826 1722.6198597707 611.7806597528 1739.8808324289 820.5196615532 1692.4534978089 1376.1088740523 1725.8519699809 1382.5138590883 1764.6247821923 820.5196615532 1748.4767414523 601.1056846928 1681.5558079867 515.8058073046 1830.3568667774 18.2520464141 1794.8036544652 42.8044890523"/>
  </g>
  <g id="Layer_8" data-name="Layer 8">
    <path class="cls-1" d="m138.6247714714,370.4216345837c181.3573060874-35.9390881317,362.7146121749-71.8781599748,544.0718853836-107.8172481065,230.5571949942,75.7923229263,461.1143899884,151.5846458527,691.6715849827,227.376968779l-14.0058109109,30.9574276741c-226.6068819089-76.5039770712-453.2136980604-153.0079704311-679.8205142119-229.511963791-181.3572732087,33.8040931197-362.7145792961,67.6081699507-544.0718853836,101.4122630705l2.1547401401-22.4174476261Z"/>
    <path class="cls-1" d="m607.2807519503,17.0799600961c22.2656700339,86.4672979864,44.5312743103,172.9345959728,66.7969443441,259.4018939592-15.4422824185,63.3381799267-30.8846305944,126.6763598534-46.3269130129,190.0145560689l2.1547401401,283.9543365973,54.9458735734,115.2897306485c208.6506921553,85.7556112641,417.3013843107,171.5112876831,625.9520107086,257.2668989472-1.0773700701-11.0307858438-2.1547401401-22.0616368424-3.2321102102-33.0924226862-200.3908330324-81.4856212401-400.7816660647-162.971307635-601.1724990971-244.4569288751l-49.5590232231-103.5472580825-3.2321102102-266.8743765012c14.3649123484-66.5406887334,28.7298904543-133.0813611782,43.0948028027-199.6220336229-22.9838729089-91.8047855164-45.9678115753-183.6095710328-68.9516844843-275.4143565493-6.8233218579,5.6933227468-13.6467094733,11.3866373493-20.4700313313,17.0799600961Z"/>
    <path class="cls-1" d="m644.9887044026,704.5483539632v37.3624127102c2.5138415777,15.3007758678,5.0277489128,30.6016168904,7.5415904905,45.9023927582-66.7969443441,119.9155314563-133.5938886882,239.8311280674-200.3908330324,359.7466595236-6.8233218579,54.7982487448-13.6467094733,109.5963671799-20.4700313313,164.3946159247-15.0831809809-.7116215674-30.1663619619-1.4233734446-45.2495429428-2.134995012,12.2101722083-59.4239843977,24.420410174-118.8480991051,36.6305823823-178.2720835028,69.3107859218-121.6947156846,138.621637601-243.3894313691,207.9324235228-365.0841470537-.7182686325-8.539980048-1.4364715076-17.0799600961-2.1547401401-25.6199401441-170.583572508,54.0865620225-341.1671778948,108.1730588902-511.7507832816,162.2596209127-.3591343163-9.9632883378-.7182357538-19.9266418304-1.0773700701-29.8899301681,176.3295571746-56.2215570345,352.6591143493-112.4430489142,528.9887044026-168.6646059488Z"/>
    <path class="cls-1" d="m140.7795116115,1137.9523414012c225.1703446439,8.8957908317,450.3406892878,17.7916468184,675.5110339317,26.6874376501,163.042047775-21.3499501201,326.0839640351-42.6999002402,489.1260118102-64.0498503603,263.9556671663,41.9882135179,527.9113343326,83.9764921907,791.8670014988,125.9647057086-8.2599248804,12.0983485046-16.5195867311,24.1965666995-24.7795116115,36.2949152042-254.6185037307-41.2765267956-509.2368759464-82.5531187461-763.8553796771-123.8297106966-167.7105637354,19.5707658918-335.4212589857,39.1415969385-503.131822721,58.7123628303-220.5017629261-9.607477554-441.0034929734-19.2149551081-661.5052230208-28.8224326621-1.0773700701-10.3191642763-2.1547401401-20.6382633978-3.2321102102-30.9574276741Z"/>
  </g>
</svg>